<svg xmlns="http://www.w3.org/2000/svg" width="1000" height="320" viewBox="0 0 1000 320"><rect width="100%" height="100%" fill="white"/><line x1="64" y1="119" x2="988" y2="119" stroke="#eee"/><line x1="64" y1="185" x2="988" y2="185" stroke="#eee"/><text x="58" y="119" font-size="10" text-anchor="end" dominant-baseline="middle" fill="#666">+2</text><text x="58" y="185" font-size="10" text-anchor="end" dominant-baseline="middle" fill="#666">-2</text><line x1="64" y1="86" x2="988" y2="86" stroke="#eee"/><line x1="64" y1="218" x2="988" y2="218" stroke="#eee"/><text x="58" y="86" font-size="10" text-anchor="end" dominant-baseline="middle" fill="#666">+4</text><text x="58" y="218" font-size="10" text-anchor="end" dominant-baseline="middle" fill="#666">-4</text><line x1="64" y1="53" x2="988" y2="53" stroke="#eee"/><line x1="64" y1="251" x2="988" y2="251" stroke="#eee"/><text x="58" y="53" font-size="10" text-anchor="end" dominant-baseline="middle" fill="#666">+6</text><text x="58" y="251" font-size="10" text-anchor="end" dominant-baseline="middle" fill="#666">-6</text><line x1="64" y1="20" x2="988" y2="20" stroke="#eee"/><line x1="64" y1="284" x2="988" y2="284" stroke="#eee"/><text x="58" y="20" font-size="10" text-anchor="end" dominant-baseline="middle" fill="#666">+9</text><text x="58" y="284" font-size="10" text-anchor="end" dominant-baseline="middle" fill="#666">-9</text><line x1="64" y1="152" x2="988" y2="152" stroke="#333"/><text x="58" y="152" font-size="10" text-anchor="end" dominant-baseline="middle" fill="#666">0</text><rect x="70" y="20" width="18" height="132" fill="#6cc04a"/><rect x="70" y="152" width="18" height="132" fill="#e5533d"/><rect x="101" y="35" width="18" height="117" fill="#6cc04a"/><rect x="101" y="152" width="18" height="117" fill="#e5533d"/><rect x="132" y="50" width="18" height="102" fill="#6cc04a"/><rect x="132" y="152" width="18" height="102" fill="#e5533d"/><rect x="162" y="64" width="18" height="88" fill="#6cc04a"/><rect x="162" y="152" width="18" height="88" fill="#e5533d"/><rect x="193" y="35" width="18" height="117" fill="#6cc04a"/><rect x="193" y="152" width="18" height="117" fill="#e5533d"/><rect x="224" y="50" width="18" height="102" fill="#6cc04a"/><rect x="224" y="152" width="18" height="102" fill="#e5533d"/><rect x="255" y="50" width="18" height="102" fill="#6cc04a"/><rect x="255" y="152" width="18" height="102" fill="#e5533d"/><rect x="286" y="35" width="18" height="117" fill="#6cc04a"/><rect x="286" y="152" width="18" height="117" fill="#e5533d"/><rect x="316" y="35" width="18" height="117" fill="#6cc04a"/><rect x="316" y="152" width="18" height="117" fill="#e5533d"/><rect x="347" y="50" width="18" height="102" fill="#6cc04a"/><rect x="347" y="152" width="18" height="102" fill="#e5533d"/><rect x="378" y="64" width="18" height="88" fill="#6cc04a"/><rect x="378" y="152" width="18" height="88" fill="#e5533d"/><rect x="409" y="64" width="18" height="88" fill="#6cc04a"/><rect x="409" y="152" width="18" height="88" fill="#e5533d"/><rect x="440" y="79" width="18" height="73" fill="#6cc04a"/><rect x="440" y="152" width="18" height="73" fill="#e5533d"/><rect x="470" y="94" width="18" height="58" fill="#6cc04a"/><rect x="470" y="152" width="18" height="58" fill="#e5533d"/><rect x="501" y="64" width="18" height="88" fill="#6cc04a"/><rect x="501" y="152" width="18" height="88" fill="#e5533d"/><rect x="532" y="94" width="18" height="58" fill="#6cc04a"/><rect x="532" y="152" width="18" height="58" fill="#e5533d"/><rect x="563" y="108" width="18" height="44" fill="#6cc04a"/><rect x="563" y="152" width="18" height="44" fill="#e5533d"/><rect x="594" y="123" width="18" height="29" fill="#6cc04a"/><rect x="594" y="152" width="18" height="29" fill="#e5533d"/><rect x="624" y="138" width="18" height="14" fill="#6cc04a"/><rect x="624" y="152" width="18" height="14" fill="#e5533d"/><rect x="655" y="138" width="18" height="14" fill="#6cc04a"/><rect x="655" y="152" width="18" height="14" fill="#e5533d"/><rect x="686" y="138" width="18" height="14" fill="#6cc04a"/><rect x="686" y="152" width="18" height="14" fill="#e5533d"/><rect x="717" y="138" width="18" height="14" fill="#6cc04a"/><rect x="717" y="152" width="18" height="14" fill="#e5533d"/><rect x="748" y="138" width="18" height="14" fill="#6cc04a"/><rect x="748" y="152" width="18" height="14" fill="#e5533d"/><rect x="778" y="138" width="18" height="14" fill="#6cc04a"/><rect x="778" y="152" width="18" height="14" fill="#e5533d"/><rect x="809" y="138" width="18" height="14" fill="#6cc04a"/><rect x="809" y="152" width="18" height="14" fill="#e5533d"/><rect x="840" y="138" width="18" height="14" fill="#6cc04a"/><rect x="840" y="152" width="18" height="14" fill="#e5533d"/><rect x="871" y="138" width="18" height="14" fill="#6cc04a"/><rect x="871" y="152" width="18" height="14" fill="#e5533d"/><rect x="902" y="138" width="18" height="14" fill="#6cc04a"/><rect x="902" y="152" width="18" height="14" fill="#e5533d"/><rect x="932" y="138" width="18" height="14" fill="#6cc04a"/><rect x="932" y="152" width="18" height="14" fill="#e5533d"/><text x="79.4" y="310" font-size="10" text-anchor="middle" fill="#666">04-02</text><text x="141.0" y="310" font-size="10" text-anchor="middle" fill="#666">04-04</text><text x="202.6" y="310" font-size="10" text-anchor="middle" fill="#666">04-06</text><text x="264.2" y="310" font-size="10" text-anchor="middle" fill="#666">04-08</text><text x="325.8" y="310" font-size="10" text-anchor="middle" fill="#666">04-10</text><text x="387.4" y="310" font-size="10" text-anchor="middle" fill="#666">04-12</text><text x="449.0" y="310" font-size="10" text-anchor="middle" fill="#666">04-14</text><text x="510.6" y="310" font-size="10" text-anchor="middle" fill="#666">04-16</text><text x="572.2" y="310" font-size="10" text-anchor="middle" fill="#666">04-18</text><text x="633.8" y="310" font-size="10" text-anchor="middle" fill="#666">04-20</text><text x="695.4" y="310" font-size="10" text-anchor="middle" fill="#666">04-22</text><text x="757.0" y="310" font-size="10" text-anchor="middle" fill="#666">04-24</text><text x="818.6" y="310" font-size="10" text-anchor="middle" fill="#666">04-26</text><text x="880.2" y="310" font-size="10" text-anchor="middle" fill="#666">04-28</text><text x="941.8" y="310" font-size="10" text-anchor="middle" fill="#666">04-30</text><text x="972.6" y="310" font-size="10" text-anchor="middle" fill="#666">05-01</text><text x="64" y="18" font-size="12" fill="#111">Daily code churn (30 days): +122  -122</text></svg>