<svg xmlns="http://www.w3.org/2000/svg" width="1000" height="320" viewBox="0 0 1000 320"><rect width="100%" height="100%" fill="white"/><line x1="64" y1="119" x2="988" y2="119" stroke="#eee"/><line x1="64" y1="185" x2="988" y2="185" stroke="#eee"/><text x="58" y="119" font-size="10" text-anchor="end" dominant-baseline="middle" fill="#666">+442</text><text x="58" y="185" font-size="10" text-anchor="end" dominant-baseline="middle" fill="#666">-442</text><line x1="64" y1="86" x2="988" y2="86" stroke="#eee"/><line x1="64" y1="218" x2="988" y2="218" stroke="#eee"/><text x="58" y="86" font-size="10" text-anchor="end" dominant-baseline="middle" fill="#666">+884</text><text x="58" y="218" font-size="10" text-anchor="end" dominant-baseline="middle" fill="#666">-884</text><line x1="64" y1="53" x2="988" y2="53" stroke="#eee"/><line x1="64" y1="251" x2="988" y2="251" stroke="#eee"/><text x="58" y="53" font-size="10" text-anchor="end" dominant-baseline="middle" fill="#666">+1.3k</text><text x="58" y="251" font-size="10" text-anchor="end" dominant-baseline="middle" fill="#666">-1.3k</text><line x1="64" y1="20" x2="988" y2="20" stroke="#eee"/><line x1="64" y1="284" x2="988" y2="284" stroke="#eee"/><text x="58" y="20" font-size="10" text-anchor="end" dominant-baseline="middle" fill="#666">+1.8k</text><text x="58" y="284" font-size="10" text-anchor="end" dominant-baseline="middle" fill="#666">-1.8k</text><line x1="64" y1="152" x2="988" y2="152" stroke="#333"/><text x="58" y="152" font-size="10" text-anchor="end" dominant-baseline="middle" fill="#666">0</text><rect x="286" y="57" width="18" height="95" fill="#6cc04a"/><rect x="286" y="152" width="18" height="12" fill="#e5533d"/><rect x="347" y="99" width="18" height="53" fill="#6cc04a"/><rect x="347" y="152" width="18" height="15" fill="#e5533d"/><rect x="378" y="114" width="18" height="38" fill="#6cc04a"/><rect x="501" y="115" width="18" height="37" fill="#6cc04a"/><rect x="501" y="152" width="18" height="30" fill="#e5533d"/><rect x="532" y="20" width="18" height="132" fill="#6cc04a"/><rect x="532" y="152" width="18" height="30" fill="#e5533d"/><rect x="563" y="137" width="18" height="15" fill="#6cc04a"/><rect x="563" y="152" width="18" height="2" fill="#e5533d"/><text x="79.4" y="310" font-size="10" text-anchor="middle" fill="#666">09-12</text><text x="141.0" y="310" font-size="10" text-anchor="middle" fill="#666">09-14</text><text x="202.6" y="310" font-size="10" text-anchor="middle" fill="#666">09-16</text><text x="264.2" y="310" font-size="10" text-anchor="middle" fill="#666">09-18</text><text x="325.8" y="310" font-size="10" text-anchor="middle" fill="#666">09-20</text><text x="387.4" y="310" font-size="10" text-anchor="middle" fill="#666">09-22</text><text x="449.0" y="310" font-size="10" text-anchor="middle" fill="#666">09-24</text><text x="510.6" y="310" font-size="10" text-anchor="middle" fill="#666">09-26</text><text x="572.2" y="310" font-size="10" text-anchor="middle" fill="#666">09-28</text><text x="633.8" y="310" font-size="10" text-anchor="middle" fill="#666">09-30</text><text x="695.4" y="310" font-size="10" text-anchor="middle" fill="#666">10-02</text><text x="757.0" y="310" font-size="10" text-anchor="middle" fill="#666">10-04</text><text x="818.6" y="310" font-size="10" text-anchor="middle" fill="#666">10-06</text><text x="880.2" y="310" font-size="10" text-anchor="middle" fill="#666">10-08</text><text x="941.8" y="310" font-size="10" text-anchor="middle" fill="#666">10-10</text><text x="972.6" y="310" font-size="10" text-anchor="middle" fill="#666">10-11</text><text x="64" y="18" font-size="12" fill="#111">Daily code churn (30 days): +5.0k  -1.2k</text></svg>